<?xml version="1.0" standalone="no"?>
<svg xmlns="http://www.w3.org/2000/svg" width="500" height="500"><defs><clipPath id="clip-path-dot-color"><path d="M 19 173v 14h 14v -7a 7 7, 0, 0, 0, -7 -7" transform="rotate(-90,26,180)"/><path d="M 19 187v 14h 14v -7a 7 7, 0, 0, 0, -7 -7" transform="rotate(180,26,194)"/><path d="M 19 215v 14h 7a 7 7, 0, 0, 0, 0 -14" transform="rotate(-90,26,222)"/><path d="M 19 229v 14h 7a 7 7, 0, 0, 0, 0 -14" transform="rotate(90,26,236)"/><path d="M 19 271v 14h 7a 7 7, 0, 0, 0, 0 -14" transform="rotate(180,26,278)"/><circle cx="26" cy="348" r="7" transform="rotate(0,26,348)"/><path d="M 33 173v 14h 14v -7a 7 7, 0, 0, 0, -7 -7" transform="rotate(0,40,180)"/><rect x="33" y="187" width="14" height="14" transform="rotate(0,40,194)"/><circle cx="40" cy="250" r="7" transform="rotate(0,40,250)"/><rect x="33" y="271" width="14" height="14" transform="rotate(0,40,278)"/><rect x="33" y="285" width="14" height="14" transform="rotate(0,40,292)"/><path d="M 33 299v 14h 14v -7a 7 7, 0, 0, 0, -7 -7" transform="rotate(180,40,306)"/><path d="M 47 131v 14h 7a 7 7, 0, 0, 0, 0 -14" transform="rotate(-90,54,138)"/><rect x="47" y="145" width="14" height="14" transform="rotate(0,54,152)"/><path d="M 47 159v 14h 14v -7a 7 7, 0, 0, 0, -7 -7" transform="rotate(180,54,166)"/><path d="M 47 187v 14h 7a 7 7, 0, 0, 0, 0 -14" transform="rotate(0,54,194)"/><path d="M 47 215v 14h 7a 7 7, 0, 0, 0, 0 -14" transform="rotate(-90,54,222)"/><path d="M 47 229v 14h 14v -7a 7 7, 0, 0, 0, -7 -7" transform="rotate(180,54,236)"/><path d="M 47 257v 14h 14v -7a 7 7, 0, 0, 0, -7 -7" transform="rotate(-90,54,264)"/><rect x="47" y="271" width="14" height="14" transform="rotate(0,54,278)"/><rect x="47" y="285" width="14" height="14" transform="rotate(0,54,292)"/><rect x="47" y="299" width="14" height="14" transform="rotate(0,54,306)"/><path d="M 47 313v 14h 7a 7 7, 0, 0, 0, 0 -14" transform="rotate(90,54,320)"/><path d="M 61 159v 14h 7a 7 7, 0, 0, 0, 0 -14" transform="rotate(0,68,166)"/><rect x="61" y="229" width="14" height="14" transform="rotate(0,68,236)"/><path d="M 61 257v 14h 7a 7 7, 0, 0, 0, 0 -14" transform="rotate(0,68,264)"/><rect x="61" y="285" width="14" height="14" transform="rotate(0,68,292)"/><path d="M 61 341v 14h 7a 7 7, 0, 0, 0, 0 -14" transform="rotate(180,68,348)"/><path d="M 75 131v 14h 14v -7a 7 7, 0, 0, 0, -7 -7" transform="rotate(-90,82,138)"/><path d="M 75 145v 14h 14v -7a 7 7, 0, 0, 0, -7 -7" transform="rotate(180,82,152)"/><path d="M 75 187v 14h 14v -7a 7 7, 0, 0, 0, -7 -7" transform="rotate(-90,82,194)"/><path d="M 75 201v 14h 7a 7 7, 0, 0, 0, 0 -14" transform="rotate(90,82,208)"/><path d="M 75 229v 14h 14v -7a 7 7, 0, 0, 0, -7 -7" transform="rotate(0,82,236)"/><path d="M 75 243v 14h 14v -7a 7 7, 0, 0, 0, -7 -7" transform="rotate(180,82,250)"/><path d="M 75 285v 14h 7a 7 7, 0, 0, 0, 0 -14" transform="rotate(0,82,292)"/><circle cx="82" cy="320" r="7" transform="rotate(0,82,320)"/><path d="M 75 341v 14h 7a 7 7, 0, 0, 0, 0 -14" transform="rotate(0,82,348)"/><rect x="89" y="131" width="14" height="14" transform="rotate(0,96,138)"/><path d="M 89 145v 14h 14v -7a 7 7, 0, 0, 0, -7 -7" transform="rotate(90,96,152)"/><rect x="89" y="187" width="14" height="14" transform="rotate(0,96,194)"/><path d="M 89 215v 14h 7a 7 7, 0, 0, 0, 0 -14" transform="rotate(180,96,222)"/><rect x="89" y="243" width="14" height="14" transform="rotate(0,96,250)"/><path d="M 89 257v 14h 7a 7 7, 0, 0, 0, 0 -14" transform="rotate(90,96,264)"/><path d="M 89 299v 14h 7a 7 7, 0, 0, 0, 0 -14" transform="rotate(180,96,306)"/><path d="M 89 355v 14h 7a 7 7, 0, 0, 0, 0 -14" transform="rotate(180,96,362)"/><path d="M 103 131v 14h 7a 7 7, 0, 0, 0, 0 -14" transform="rotate(0,110,138)"/><path d="M 103 159v 14h 7a 7 7, 0, 0, 0, 0 -14" transform="rotate(180,110,166)"/><path d="M 103 187v 14h 7a 7 7, 0, 0, 0, 0 -14" transform="rotate(0,110,194)"/><rect x="103" y="215" width="14" height="14" transform="rotate(0,110,222)"/><rect x="103" y="243" width="14" height="14" transform="rotate(0,110,250)"/><path d="M 103 271v 14h 7a 7 7, 0, 0, 0, 0 -14" transform="rotate(180,110,278)"/><rect x="103" y="299" width="14" height="14" transform="rotate(0,110,306)"/><path d="M 103 327v 14h 7a 7 7, 0, 0, 0, 0 -14" transform="rotate(180,110,334)"/><rect x="103" y="355" width="14" height="14" transform="rotate(0,110,362)"/><path d="M 117 145v 14h 14v -7a 7 7, 0, 0, 0, -7 -7" transform="rotate(-90,124,152)"/><rect x="117" y="159" width="14" height="14" transform="rotate(0,124,166)"/><rect x="117" y="215" width="14" height="14" transform="rotate(0,124,222)"/><rect x="117" y="229" width="14" height="14" transform="rotate(0,124,236)"/><rect x="117" y="243" width="14" height="14" transform="rotate(0,124,250)"/><rect x="117" y="257" width="14" height="14" transform="rotate(0,124,264)"/><rect x="117" y="271" width="14" height="14" transform="rotate(0,124,278)"/><rect x="117" y="285" width="14" height="14" transform="rotate(0,124,292)"/><rect x="117" y="299" width="14" height="14" transform="rotate(0,124,306)"/><rect x="117" y="313" width="14" height="14" transform="rotate(0,124,320)"/><rect x="117" y="327" width="14" height="14" transform="rotate(0,124,334)"/><rect x="117" y="341" width="14" height="14" transform="rotate(0,124,348)"/><path d="M 117 355v 14h 14v -7a 7 7, 0, 0, 0, -7 -7" transform="rotate(90,124,362)"/><path d="M 131 33v 14h 7a 7 7, 0, 0, 0, 0 -14" transform="rotate(180,138,40)"/><circle cx="138" cy="82" r="7" transform="rotate(0,138,82)"/><circle cx="138" cy="110" r="7" transform="rotate(0,138,110)"/><path d="M 131 131v 14h 7a 7 7, 0, 0, 0, 0 -14" transform="rotate(-90,138,138)"/><rect x="131" y="145" width="14" height="14" transform="rotate(0,138,152)"/><path d="M 131 159v 14h 14v -7a 7 7, 0, 0, 0, -7 -7" transform="rotate(90,138,166)"/><circle cx="138" cy="194" r="7" transform="rotate(0,138,194)"/><rect x="131" y="215" width="14" height="14" transform="rotate(0,138,222)"/><rect x="131" y="229" width="14" height="14" transform="rotate(0,138,236)"/><rect x="131" y="257" width="14" height="14" transform="rotate(0,138,264)"/><rect x="131" y="299" width="14" height="14" transform="rotate(0,138,306)"/><rect x="131" y="313" width="14" height="14" transform="rotate(0,138,320)"/><path d="M 131 327v 14h 14v -7a 7 7, 0, 0, 0, -7 -7" transform="rotate(90,138,334)"/><path d="M 131 369v 14h 7a 7 7, 0, 0, 0, 0 -14" transform="rotate(180,138,376)"/><path d="M 131 397v 14h 7a 7 7, 0, 0, 0, 0 -14" transform="rotate(-90,138,404)"/><path d="M 131 411v 14h 7a 7 7, 0, 0, 0, 0 -14" transform="rotate(90,138,418)"/><path d="M 131 439v 14h 7a 7 7, 0, 0, 0, 0 -14" transform="rotate(180,138,446)"/><path d="M 145 19v 14h 14v -7a 7 7, 0, 0, 0, -7 -7" transform="rotate(-90,152,26)"/><path d="M 145 33v 14h 14v -7a 7 7, 0, 0, 0, -7 -7" transform="rotate(90,152,40)"/><circle cx="152" cy="68" r="7" transform="rotate(0,152,68)"/><path d="M 145 89v 14h 7a 7 7, 0, 0, 0, 0 -14" transform="rotate(180,152,96)"/><path d="M 145 145v 14h 7a 7 7, 0, 0, 0, 0 -14" transform="rotate(0,152,152)"/><circle cx="152" cy="180" r="7" transform="rotate(0,152,180)"/><path d="M 145 201v 14h 14v -7a 7 7, 0, 0, 0, -7 -7" transform="rotate(-90,152,208)"/><rect x="145" y="215" width="14" height="14" transform="rotate(0,152,222)"/><rect x="145" y="229" width="14" height="14" transform="rotate(0,152,236)"/><rect x="145" y="243" width="14" height="14" transform="rotate(0,152,250)"/><rect x="145" y="257" width="14" height="14" transform="rotate(0,152,264)"/><path d="M 145 271v 14h 14v -7a 7 7, 0, 0, 0, -7 -7" transform="rotate(180,152,278)"/><rect x="145" y="299" width="14" height="14" transform="rotate(0,152,306)"/><rect x="145" y="313" width="14" height="14" transform="rotate(0,152,320)"/><path d="M 145 341v 14h 7a 7 7, 0, 0, 0, 0 -14" transform="rotate(180,152,348)"/><rect x="145" y="369" width="14" height="14" transform="rotate(0,152,376)"/><path d="M 145 425v 14h 14v -7a 7 7, 0, 0, 0, -7 -7" transform="rotate(-90,152,432)"/><path d="M 145 439v 14h 14v -7a 7 7, 0, 0, 0, -7 -7" transform="rotate(90,152,446)"/><path d="M 159 19v 14h 7a 7 7, 0, 0, 0, 0 -14" transform="rotate(0,166,26)"/><circle cx="166" cy="54" r="7" transform="rotate(0,166,54)"/><path d="M 159 89v 14h 14v -7a 7 7, 0, 0, 0, -7 -7" transform="rotate(0,166,96)"/><path d="M 159 103v 14h 7a 7 7, 0, 0, 0, 0 -14" transform="rotate(90,166,110)"/><circle cx="166" cy="138" r="7" transform="rotate(0,166,138)"/><rect x="159" y="201" width="14" height="14" transform="rotate(0,166,208)"/><rect x="159" y="229" width="14" height="14" transform="rotate(0,166,236)"/><path d="M 159 271v 14h 7a 7 7, 0, 0, 0, 0 -14" transform="rotate(0,166,278)"/><path d="M 159 299v 14h 14v -7a 7 7, 0, 0, 0, -7 -7" transform="rotate(0,166,306)"/><rect x="159" y="313" width="14" height="14" transform="rotate(0,166,320)"/><rect x="159" y="341" width="14" height="14" transform="rotate(0,166,348)"/><rect x="159" y="355" width="14" height="14" transform="rotate(0,166,362)"/><rect x="159" y="369" width="14" height="14" transform="rotate(0,166,376)"/><path d="M 159 383v 14h 14v -7a 7 7, 0, 0, 0, -7 -7" transform="rotate(180,166,390)"/><path d="M 159 425v 14h 7a 7 7, 0, 0, 0, 0 -14" transform="rotate(0,166,432)"/><circle cx="166" cy="460" r="7" transform="rotate(0,166,460)"/><path d="M 173 61v 14h 7a 7 7, 0, 0, 0, 0 -14" transform="rotate(180,180,68)"/><circle cx="180" cy="124" r="7" transform="rotate(0,180,124)"/><path d="M 173 187v 14h 7a 7 7, 0, 0, 0, 0 -14" transform="rotate(-90,180,194)"/><rect x="173" y="201" width="14" height="14" transform="rotate(0,180,208)"/><rect x="173" y="229" width="14" height="14" transform="rotate(0,180,236)"/><path d="M 173 243v 14h 14v -7a 7 7, 0, 0, 0, -7 -7" transform="rotate(180,180,250)"/><path d="M 173 313v 14h 14v -7a 7 7, 0, 0, 0, -7 -7" transform="rotate(0,180,320)"/><rect x="173" y="327" width="14" height="14" transform="rotate(0,180,334)"/><rect x="173" y="341" width="14" height="14" transform="rotate(0,180,348)"/><rect x="173" y="355" width="14" height="14" transform="rotate(0,180,362)"/><rect x="173" y="369" width="14" height="14" transform="rotate(0,180,376)"/><rect x="173" y="383" width="14" height="14" transform="rotate(0,180,390)"/><path d="M 187 19v 14h 7a 7 7, 0, 0, 0, 0 -14" transform="rotate(-90,194,26)"/><path d="M 187 33v 14h 14v -7a 7 7, 0, 0, 0, -7 -7" transform="rotate(180,194,40)"/><rect x="187" y="61" width="14" height="14" transform="rotate(0,194,68)"/><rect x="187" y="75" width="14" height="14" transform="rotate(0,194,82)"/><rect x="187" y="89" width="14" height="14" transform="rotate(0,194,96)"/><path d="M 187 103v 14h 7a 7 7, 0, 0, 0, 0 -14" transform="rotate(90,194,110)"/><path d="M 187 131v 14h 7a 7 7, 0, 0, 0, 0 -14" transform="rotate(-90,194,138)"/><path d="M 187 145v 14h 7a 7 7, 0, 0, 0, 0 -14" transform="rotate(90,194,152)"/><path d="M 187 173v 14h 7a 7 7, 0, 0, 0, 0 -14" transform="rotate(180,194,180)"/><rect x="187" y="201" width="14" height="14" transform="rotate(0,194,208)"/><rect x="187" y="215" width="14" height="14" transform="rotate(0,194,222)"/><rect x="187" y="229" width="14" height="14" transform="rotate(0,194,236)"/><path d="M 187 243v 14h 14v -7a 7 7, 0, 0, 0, -7 -7" transform="rotate(90,194,250)"/><path d="M 187 285v 14h 14v -7a 7 7, 0, 0, 0, -7 -7" transform="rotate(-90,194,292)"/><path d="M 187 299v 14h 14v -7a 7 7, 0, 0, 0, -7 -7" transform="rotate(180,194,306)"/><path d="M 187 327v 14h 7a 7 7, 0, 0, 0, 0 -14" transform="rotate(0,194,334)"/><rect x="187" y="383" width="14" height="14" transform="rotate(0,194,390)"/><path d="M 187 411v 14h 7a 7 7, 0, 0, 0, 0 -14" transform="rotate(-90,194,418)"/><path d="M 187 425v 14h 14v -7a 7 7, 0, 0, 0, -7 -7" transform="rotate(180,194,432)"/><circle cx="194" cy="460" r="7" transform="rotate(0,194,460)"/><rect x="201" y="33" width="14" height="14" transform="rotate(0,208,40)"/><rect x="201" y="61" width="14" height="14" transform="rotate(0,208,68)"/><rect x="201" y="75" width="14" height="14" transform="rotate(0,208,82)"/><circle cx="208" cy="124" r="7" transform="rotate(0,208,124)"/><path d="M 201 159v 14h 7a 7 7, 0, 0, 0, 0 -14" transform="rotate(-90,208,166)"/><rect x="201" y="173" width="14" height="14" transform="rotate(0,208,180)"/><path d="M 201 201v 14h 7a 7 7, 0, 0, 0, 0 -14" transform="rotate(0,208,208)"/><path d="M 201 271v 14h 14v -7a 7 7, 0, 0, 0, -7 -7" transform="rotate(-90,208,278)"/><rect x="201" y="285" width="14" height="14" transform="rotate(0,208,292)"/><rect x="201" y="299" width="14" height="14" transform="rotate(0,208,306)"/><path d="M 201 313v 14h 7a 7 7, 0, 0, 0, 0 -14" transform="rotate(90,208,320)"/><path d="M 201 341v 14h 7a 7 7, 0, 0, 0, 0 -14" transform="rotate(180,208,348)"/><path d="M 201 369v 14h 14v -7a 7 7, 0, 0, 0, -7 -7" transform="rotate(-90,208,376)"/><rect x="201" y="383" width="14" height="14" transform="rotate(0,208,390)"/><path d="M 201 425v 14h 14v -7a 7 7, 0, 0, 0, -7 -7" transform="rotate(0,208,432)"/><path d="M 201 439v 14h 7a 7 7, 0, 0, 0, 0 -14" transform="rotate(90,208,446)"/><path d="M 215 33v 14h 14v -7a 7 7, 0, 0, 0, -7 -7" transform="rotate(0,222,40)"/><rect x="215" y="47" width="14" height="14" transform="rotate(0,222,54)"/><rect x="215" y="61" width="14" height="14" transform="rotate(0,222,68)"/><rect x="215" y="75" width="14" height="14" transform="rotate(0,222,82)"/><circle cx="222" cy="110" r="7" transform="rotate(0,222,110)"/><path d="M 215 131v 14h 7a 7 7, 0, 0, 0, 0 -14" transform="rotate(-90,222,138)"/><path d="M 215 145v 14h 7a 7 7, 0, 0, 0, 0 -14" transform="rotate(90,222,152)"/><rect x="215" y="173" width="14" height="14" transform="rotate(0,222,180)"/><circle cx="222" cy="236" r="7" transform="rotate(0,222,236)"/><path d="M 215 257v 14h 7a 7 7, 0, 0, 0, 0 -14" transform="rotate(-90,222,264)"/><path d="M 215 271v 14h 14v -7a 7 7, 0, 0, 0, -7 -7" transform="rotate(90,222,278)"/><rect x="215" y="299" width="14" height="14" transform="rotate(0,222,306)"/><path d="M 215 327v 14h 7a 7 7, 0, 0, 0, 0 -14" transform="rotate(-90,222,334)"/><rect x="215" y="341" width="14" height="14" transform="rotate(0,222,348)"/><rect x="215" y="355" width="14" height="14" transform="rotate(0,222,362)"/><rect x="215" y="369" width="14" height="14" transform="rotate(0,222,376)"/><rect x="215" y="383" width="14" height="14" transform="rotate(0,222,390)"/><circle cx="222" cy="460" r="7" transform="rotate(0,222,460)"/><rect x="229" y="47" width="14" height="14" transform="rotate(0,236,54)"/><path d="M 229 75v 14h 7a 7 7, 0, 0, 0, 0 -14" transform="rotate(0,236,82)"/><path d="M 229 117v 14h 7a 7 7, 0, 0, 0, 0 -14" transform="rotate(180,236,124)"/><path d="M 229 159v 14h 14v -7a 7 7, 0, 0, 0, -7 -7" transform="rotate(-90,236,166)"/><rect x="229" y="173" width="14" height="14" transform="rotate(0,236,180)"/><rect x="229" y="187" width="14" height="14" transform="rotate(0,236,194)"/><path d="M 229 201v 14h 7a 7 7, 0, 0, 0, 0 -14" transform="rotate(90,236,208)"/><path d="M 229 285v 14h 7a 7 7, 0, 0, 0, 0 -14" transform="rotate(-90,236,292)"/><rect x="229" y="299" width="14" height="14" transform="rotate(0,236,306)"/><path d="M 229 313v 14h 14v -7a 7 7, 0, 0, 0, -7 -7" transform="rotate(180,236,320)"/><rect x="229" y="341" width="14" height="14" transform="rotate(0,236,348)"/><path d="M 229 369v 14h 14v -7a 7 7, 0, 0, 0, -7 -7" transform="rotate(0,236,376)"/><rect x="229" y="383" width="14" height="14" transform="rotate(0,236,390)"/><path d="M 243 47v 14h 14v -7a 7 7, 0, 0, 0, -7 -7" transform="rotate(0,250,54)"/><path d="M 243 61v 14h 7a 7 7, 0, 0, 0, 0 -14" transform="rotate(90,250,68)"/><path d="M 243 89v 14h 7a 7 7, 0, 0, 0, 0 -14" transform="rotate(-90,250,96)"/><rect x="243" y="103" width="14" height="14" transform="rotate(0,250,110)"/><rect x="243" y="117" width="14" height="14" transform="rotate(0,250,124)"/><rect x="243" y="131" width="14" height="14" transform="rotate(0,250,138)"/><rect x="243" y="145" width="14" height="14" transform="rotate(0,250,152)"/><rect x="243" y="159" width="14" height="14" transform="rotate(0,250,166)"/><path d="M 243 215v 14h 14v -7a 7 7, 0, 0, 0, -7 -7" transform="rotate(-90,250,222)"/><rect x="243" y="229" width="14" height="14" transform="rotate(0,250,236)"/><rect x="243" y="243" width="14" height="14" transform="rotate(0,250,250)"/><rect x="243" y="257" width="14" height="14" transform="rotate(0,250,264)"/><path d="M 243 271v 14h 14v -7a 7 7, 0, 0, 0, -7 -7" transform="rotate(180,250,278)"/><path d="M 243 313v 14h 14v -7a 7 7, 0, 0, 0, -7 -7" transform="rotate(0,250,320)"/><rect x="243" y="327" width="14" height="14" transform="rotate(0,250,334)"/><rect x="243" y="341" width="14" height="14" transform="rotate(0,250,348)"/><path d="M 243 355v 14h 7a 7 7, 0, 0, 0, 0 -14" transform="rotate(90,250,362)"/><path d="M 243 383v 14h 7a 7 7, 0, 0, 0, 0 -14" transform="rotate(0,250,390)"/><circle cx="250" cy="418" r="7" transform="rotate(0,250,418)"/><path d="M 243 453v 14h 7a 7 7, 0, 0, 0, 0 -14" transform="rotate(180,250,460)"/><path d="M 257 19v 14h 7a 7 7, 0, 0, 0, 0 -14" transform="rotate(-90,264,26)"/><path d="M 257 33v 14h 14v -7a 7 7, 0, 0, 0, -7 -7" transform="rotate(180,264,40)"/><rect x="257" y="117" width="14" height="14" transform="rotate(0,264,124)"/><path d="M 257 159v 14h 7a 7 7, 0, 0, 0, 0 -14" transform="rotate(0,264,166)"/><path d="M 257 215v 14h 14v -7a 7 7, 0, 0, 0, -7 -7" transform="rotate(0,264,222)"/><rect x="257" y="229" width="14" height="14" transform="rotate(0,264,236)"/><rect x="257" y="271" width="14" height="14" transform="rotate(0,264,278)"/><path d="M 257 299v 14h 7a 7 7, 0, 0, 0, 0 -14" transform="rotate(180,264,306)"/><rect x="257" y="341" width="14" height="14" transform="rotate(0,264,348)"/><path d="M 257 369v 14h 7a 7 7, 0, 0, 0, 0 -14" transform="rotate(180,264,376)"/><path d="M 257 425v 14h 14v -7a 7 7, 0, 0, 0, -7 -7" transform="rotate(-90,264,432)"/><rect x="257" y="439" width="14" height="14" transform="rotate(0,264,446)"/><rect x="257" y="453" width="14" height="14" transform="rotate(0,264,460)"/><rect x="271" y="33" width="14" height="14" transform="rotate(0,278,40)"/><rect x="271" y="47" width="14" height="14" transform="rotate(0,278,54)"/><rect x="271" y="61" width="14" height="14" transform="rotate(0,278,68)"/><rect x="271" y="75" width="14" height="14" transform="rotate(0,278,82)"/><rect x="271" y="89" width="14" height="14" transform="rotate(0,278,96)"/><rect x="271" y="103" width="14" height="14" transform="rotate(0,278,110)"/><rect x="271" y="117" width="14" height="14" transform="rotate(0,278,124)"/><rect x="271" y="131" width="14" height="14" transform="rotate(0,278,138)"/><path d="M 271 145v 14h 14v -7a 7 7, 0, 0, 0, -7 -7" transform="rotate(180,278,152)"/><path d="M 271 173v 14h 7a 7 7, 0, 0, 0, 0 -14" transform="rotate(-90,278,180)"/><rect x="271" y="187" width="14" height="14" transform="rotate(0,278,194)"/><path d="M 271 201v 14h 7a 7 7, 0, 0, 0, 0 -14" transform="rotate(90,278,208)"/><path d="M 271 229v 14h 7a 7 7, 0, 0, 0, 0 -14" transform="rotate(0,278,236)"/><path d="M 271 257v 14h 14v -7a 7 7, 0, 0, 0, -7 -7" transform="rotate(-90,278,264)"/><path d="M 271 271v 14h 14v -7a 7 7, 0, 0, 0, -7 -7" transform="rotate(90,278,278)"/><path d="M 271 299v 14h 7a 7 7, 0, 0, 0, 0 -14" transform="rotate(0,278,306)"/><path d="M 271 327v 14h 7a 7 7, 0, 0, 0, 0 -14" transform="rotate(-90,278,334)"/><path d="M 271 341v 14h 14v -7a 7 7, 0, 0, 0, -7 -7" transform="rotate(90,278,348)"/><path d="M 271 369v 14h 7a 7 7, 0, 0, 0, 0 -14" transform="rotate(0,278,376)"/><path d="M 271 397v 14h 7a 7 7, 0, 0, 0, 0 -14" transform="rotate(180,278,404)"/><path d="M 271 425v 14h 7a 7 7, 0, 0, 0, 0 -14" transform="rotate(0,278,432)"/><path d="M 271 453v 14h 7a 7 7, 0, 0, 0, 0 -14" transform="rotate(0,278,460)"/><rect x="285" y="33" width="14" height="14" transform="rotate(0,292,40)"/><rect x="285" y="75" width="14" height="14" transform="rotate(0,292,82)"/><path d="M 285 117v 14h 7a 7 7, 0, 0, 0, 0 -14" transform="rotate(0,292,124)"/><rect x="285" y="145" width="14" height="14" transform="rotate(0,292,152)"/><path d="M 285 159v 14h 7a 7 7, 0, 0, 0, 0 -14" transform="rotate(90,292,166)"/><path d="M 285 257v 14h 7a 7 7, 0, 0, 0, 0 -14" transform="rotate(0,292,264)"/><path d="M 285 313v 14h 7a 7 7, 0, 0, 0, 0 -14" transform="rotate(180,292,320)"/><path d="M 285 397v 14h 7a 7 7, 0, 0, 0, 0 -14" transform="rotate(0,292,404)"/><path d="M 299 19v 14h 14v -7a 7 7, 0, 0, 0, -7 -7" transform="rotate(-90,306,26)"/><rect x="299" y="33" width="14" height="14" transform="rotate(0,306,40)"/><rect x="299" y="47" width="14" height="14" transform="rotate(0,306,54)"/><rect x="299" y="61" width="14" height="14" transform="rotate(0,306,68)"/><rect x="299" y="75" width="14" height="14" transform="rotate(0,306,82)"/><circle cx="306" cy="110" r="7" transform="rotate(0,306,110)"/><path d="M 299 145v 14h 7a 7 7, 0, 0, 0, 0 -14" transform="rotate(0,306,152)"/><path d="M 299 173v 14h 7a 7 7, 0, 0, 0, 0 -14" transform="rotate(-90,306,180)"/><rect x="299" y="187" width="14" height="14" transform="rotate(0,306,194)"/><path d="M 299 201v 14h 14v -7a 7 7, 0, 0, 0, -7 -7" transform="rotate(180,306,208)"/><circle cx="306" cy="236" r="7" transform="rotate(0,306,236)"/><path d="M 299 285v 14h 7a 7 7, 0, 0, 0, 0 -14" transform="rotate(-90,306,292)"/><rect x="299" y="299" width="14" height="14" transform="rotate(0,306,306)"/><rect x="299" y="313" width="14" height="14" transform="rotate(0,306,320)"/><path d="M 299 327v 14h 7a 7 7, 0, 0, 0, 0 -14" transform="rotate(90,306,334)"/><circle cx="306" cy="362" r="7" transform="rotate(0,306,362)"/><circle cx="306" cy="390" r="7" transform="rotate(0,306,390)"/><path d="M 299 411v 14h 7a 7 7, 0, 0, 0, 0 -14" transform="rotate(-90,306,418)"/><path d="M 299 425v 14h 7a 7 7, 0, 0, 0, 0 -14" transform="rotate(90,306,432)"/><circle cx="306" cy="474" r="7" transform="rotate(0,306,474)"/><path d="M 313 19v 14h 14v -7a 7 7, 0, 0, 0, -7 -7" transform="rotate(0,320,26)"/><path d="M 313 33v 14h 14v -7a 7 7, 0, 0, 0, -7 -7" transform="rotate(90,320,40)"/><path d="M 313 61v 14h 14v -7a 7 7, 0, 0, 0, -7 -7" transform="rotate(0,320,68)"/><path d="M 313 75v 14h 14v -7a 7 7, 0, 0, 0, -7 -7" transform="rotate(90,320,82)"/><path d="M 313 117v 14h 7a 7 7, 0, 0, 0, 0 -14" transform="rotate(180,320,124)"/><rect x="313" y="201" width="14" height="14" transform="rotate(0,320,208)"/><circle cx="320" cy="278" r="7" transform="rotate(0,320,278)"/><path d="M 313 299v 14h 7a 7 7, 0, 0, 0, 0 -14" transform="rotate(0,320,306)"/><path d="M 313 341v 14h 7a 7 7, 0, 0, 0, 0 -14" transform="rotate(180,320,348)"/><circle cx="320" cy="376" r="7" transform="rotate(0,320,376)"/><circle cx="320" cy="404" r="7" transform="rotate(0,320,404)"/><path d="M 313 439v 14h 14v -7a 7 7, 0, 0, 0, -7 -7" transform="rotate(-90,320,446)"/><path d="M 313 453v 14h 14v -7a 7 7, 0, 0, 0, -7 -7" transform="rotate(180,320,460)"/><path d="M 327 47v 14h 7a 7 7, 0, 0, 0, 0 -14" transform="rotate(180,334,54)"/><path d="M 327 89v 14h 14v -7a 7 7, 0, 0, 0, -7 -7" transform="rotate(-90,334,96)"/><rect x="327" y="103" width="14" height="14" transform="rotate(0,334,110)"/><rect x="327" y="117" width="14" height="14" transform="rotate(0,334,124)"/><path d="M 327 131v 14h 14v -7a 7 7, 0, 0, 0, -7 -7" transform="rotate(180,334,138)"/><circle cx="334" cy="180" r="7" transform="rotate(0,334,180)"/><path d="M 327 201v 14h 7a 7 7, 0, 0, 0, 0 -14" transform="rotate(0,334,208)"/><path d="M 327 243v 14h 7a 7 7, 0, 0, 0, 0 -14" transform="rotate(180,334,250)"/><path d="M 327 313v 14h 14v -7a 7 7, 0, 0, 0, -7 -7" transform="rotate(-90,334,320)"/><rect x="327" y="327" width="14" height="14" transform="rotate(0,334,334)"/><rect x="327" y="341" width="14" height="14" transform="rotate(0,334,348)"/><path d="M 327 355v 14h 14v -7a 7 7, 0, 0, 0, -7 -7" transform="rotate(180,334,362)"/><path d="M 327 411v 14h 7a 7 7, 0, 0, 0, 0 -14" transform="rotate(-90,334,418)"/><rect x="327" y="425" width="14" height="14" transform="rotate(0,334,432)"/><rect x="327" y="439" width="14" height="14" transform="rotate(0,334,446)"/><rect x="327" y="453" width="14" height="14" transform="rotate(0,334,460)"/><rect x="341" y="47" width="14" height="14" transform="rotate(0,348,54)"/><rect x="341" y="89" width="14" height="14" transform="rotate(0,348,96)"/><path d="M 341 131v 14h 14v -7a 7 7, 0, 0, 0, -7 -7" transform="rotate(0,348,138)"/><rect x="341" y="145" width="14" height="14" transform="rotate(0,348,152)"/><path d="M 341 159v 14h 7a 7 7, 0, 0, 0, 0 -14" transform="rotate(90,348,166)"/><path d="M 341 187v 14h 7a 7 7, 0, 0, 0, 0 -14" transform="rotate(180,348,194)"/><path d="M 341 229v 14h 7a 7 7, 0, 0, 0, 0 -14" transform="rotate(-90,348,236)"/><rect x="341" y="243" width="14" height="14" transform="rotate(0,348,250)"/><path d="M 341 257v 14h 14v -7a 7 7, 0, 0, 0, -7 -7" transform="rotate(180,348,264)"/><path d="M 341 299v 14h 14v -7a 7 7, 0, 0, 0, -7 -7" transform="rotate(-90,348,306)"/><rect x="341" y="313" width="14" height="14" transform="rotate(0,348,320)"/><rect x="341" y="355" width="14" height="14" transform="rotate(0,348,362)"/><path d="M 341 369v 14h 14v -7a 7 7, 0, 0, 0, -7 -7" transform="rotate(180,348,376)"/><path d="M 341 397v 14h 7a 7 7, 0, 0, 0, 0 -14" transform="rotate(180,348,404)"/><path d="M 341 425v 14h 7a 7 7, 0, 0, 0, 0 -14" transform="rotate(0,348,432)"/><rect x="341" y="453" width="14" height="14" transform="rotate(0,348,460)"/><path d="M 341 467v 14h 7a 7 7, 0, 0, 0, 0 -14" transform="rotate(90,348,474)"/><path d="M 355 19v 14h 7a 7 7, 0, 0, 0, 0 -14" transform="rotate(-90,362,26)"/><rect x="355" y="33" width="14" height="14" transform="rotate(0,362,40)"/><rect x="355" y="47" width="14" height="14" transform="rotate(0,362,54)"/><path d="M 355 61v 14h 7a 7 7, 0, 0, 0, 0 -14" transform="rotate(90,362,68)"/><path d="M 355 89v 14h 14v -7a 7 7, 0, 0, 0, -7 -7" transform="rotate(0,362,96)"/><path d="M 355 103v 14h 7a 7 7, 0, 0, 0, 0 -14" transform="rotate(90,362,110)"/><path d="M 355 145v 14h 7a 7 7, 0, 0, 0, 0 -14" transform="rotate(0,362,152)"/><rect x="355" y="187" width="14" height="14" transform="rotate(0,362,194)"/><path d="M 355 201v 14h 14v -7a 7 7, 0, 0, 0, -7 -7" transform="rotate(180,362,208)"/><rect x="355" y="243" width="14" height="14" transform="rotate(0,362,250)"/><rect x="355" y="257" width="14" height="14" transform="rotate(0,362,264)"/><rect x="355" y="271" width="14" height="14" transform="rotate(0,362,278)"/><rect x="355" y="285" width="14" height="14" transform="rotate(0,362,292)"/><rect x="355" y="299" width="14" height="14" transform="rotate(0,362,306)"/><rect x="355" y="313" width="14" height="14" transform="rotate(0,362,320)"/><path d="M 355 327v 14h 7a 7 7, 0, 0, 0, 0 -14" transform="rotate(90,362,334)"/><rect x="355" y="355" width="14" height="14" transform="rotate(0,362,362)"/><rect x="355" y="369" width="14" height="14" transform="rotate(0,362,376)"/><rect x="355" y="383" width="14" height="14" transform="rotate(0,362,390)"/><rect x="355" y="397" width="14" height="14" transform="rotate(0,362,404)"/><path d="M 355 411v 14h 14v -7a 7 7, 0, 0, 0, -7 -7" transform="rotate(180,362,418)"/><path d="M 355 453v 14h 7a 7 7, 0, 0, 0, 0 -14" transform="rotate(0,362,460)"/><circle cx="376" cy="138" r="7" transform="rotate(0,376,138)"/><path d="M 369 159v 14h 7a 7 7, 0, 0, 0, 0 -14" transform="rotate(180,376,166)"/><path d="M 369 187v 14h 14v -7a 7 7, 0, 0, 0, -7 -7" transform="rotate(0,376,194)"/><rect x="369" y="201" width="14" height="14" transform="rotate(0,376,208)"/><path d="M 369 229v 14h 7a 7 7, 0, 0, 0, 0 -14" transform="rotate(-90,376,236)"/><rect x="369" y="243" width="14" height="14" transform="rotate(0,376,250)"/><path d="M 369 341v 14h 7a 7 7, 0, 0, 0, 0 -14" transform="rotate(-90,376,348)"/><rect x="369" y="355" width="14" height="14" transform="rotate(0,376,362)"/><rect x="369" y="411" width="14" height="14" transform="rotate(0,376,418)"/><circle cx="376" cy="446" r="7" transform="rotate(0,376,446)"/><rect x="383" y="159" width="14" height="14" transform="rotate(0,390,166)"/><path d="M 383 173v 14h 7a 7 7, 0, 0, 0, 0 -14" transform="rotate(90,390,180)"/><rect x="383" y="201" width="14" height="14" transform="rotate(0,390,208)"/><path d="M 383 215v 14h 7a 7 7, 0, 0, 0, 0 -14" transform="rotate(90,390,222)"/><path d="M 383 243v 14h 14v -7a 7 7, 0, 0, 0, -7 -7" transform="rotate(0,390,250)"/><rect x="383" y="257" width="14" height="14" transform="rotate(0,390,264)"/><path d="M 383 271v 14h 14v -7a 7 7, 0, 0, 0, -7 -7" transform="rotate(180,390,278)"/><path d="M 383 313v 14h 14v -7a 7 7, 0, 0, 0, -7 -7" transform="rotate(-90,390,320)"/><path d="M 383 327v 14h 7a 7 7, 0, 0, 0, 0 -14" transform="rotate(90,390,334)"/><rect x="383" y="355" width="14" height="14" transform="rotate(0,390,362)"/><circle cx="390" cy="390" r="7" transform="rotate(0,390,390)"/><rect x="383" y="411" width="14" height="14" transform="rotate(0,390,418)"/><path d="M 383 425v 14h 7a 7 7, 0, 0, 0, 0 -14" transform="rotate(90,390,432)"/><path d="M 383 453v 14h 7a 7 7, 0, 0, 0, 0 -14" transform="rotate(180,390,460)"/><path d="M 397 145v 14h 7a 7 7, 0, 0, 0, 0 -14" transform="rotate(-90,404,152)"/><rect x="397" y="159" width="14" height="14" transform="rotate(0,404,166)"/><path d="M 397 187v 14h 7a 7 7, 0, 0, 0, 0 -14" transform="rotate(-90,404,194)"/><rect x="397" y="201" width="14" height="14" transform="rotate(0,404,208)"/><path d="M 397 257v 14h 14v -7a 7 7, 0, 0, 0, -7 -7" transform="rotate(0,404,264)"/><rect x="397" y="271" width="14" height="14" transform="rotate(0,404,278)"/><rect x="397" y="285" width="14" height="14" transform="rotate(0,404,292)"/><rect x="397" y="299" width="14" height="14" transform="rotate(0,404,306)"/><rect x="397" y="313" width="14" height="14" transform="rotate(0,404,320)"/><rect x="397" y="355" width="14" height="14" transform="rotate(0,404,362)"/><rect x="397" y="411" width="14" height="14" transform="rotate(0,404,418)"/><rect x="397" y="453" width="14" height="14" transform="rotate(0,404,460)"/><circle cx="418" cy="138" r="7" transform="rotate(0,418,138)"/><path d="M 411 159v 14h 7a 7 7, 0, 0, 0, 0 -14" transform="rotate(0,418,166)"/><rect x="411" y="201" width="14" height="14" transform="rotate(0,418,208)"/><rect x="411" y="215" width="14" height="14" transform="rotate(0,418,222)"/><path d="M 411 229v 14h 7a 7 7, 0, 0, 0, 0 -14" transform="rotate(90,418,236)"/><path d="M 411 271v 14h 7a 7 7, 0, 0, 0, 0 -14" transform="rotate(0,418,278)"/><path d="M 411 299v 14h 14v -7a 7 7, 0, 0, 0, -7 -7" transform="rotate(0,418,306)"/><rect x="411" y="313" width="14" height="14" transform="rotate(0,418,320)"/><path d="M 411 327v 14h 14v -7a 7 7, 0, 0, 0, -7 -7" transform="rotate(180,418,334)"/><rect x="411" y="355" width="14" height="14" transform="rotate(0,418,362)"/><rect x="411" y="369" width="14" height="14" transform="rotate(0,418,376)"/><rect x="411" y="383" width="14" height="14" transform="rotate(0,418,390)"/><rect x="411" y="397" width="14" height="14" transform="rotate(0,418,404)"/><rect x="411" y="411" width="14" height="14" transform="rotate(0,418,418)"/><path d="M 411 425v 14h 14v -7a 7 7, 0, 0, 0, -7 -7" transform="rotate(180,418,432)"/><rect x="411" y="453" width="14" height="14" transform="rotate(0,418,460)"/><path d="M 425 173v 14h 7a 7 7, 0, 0, 0, 0 -14" transform="rotate(180,432,180)"/><rect x="425" y="201" width="14" height="14" transform="rotate(0,432,208)"/><path d="M 425 243v 14h 7a 7 7, 0, 0, 0, 0 -14" transform="rotate(180,432,250)"/><path d="M 425 313v 14h 14v -7a 7 7, 0, 0, 0, -7 -7" transform="rotate(0,432,320)"/><rect x="425" y="327" width="14" height="14" transform="rotate(0,432,334)"/><rect x="425" y="341" width="14" height="14" transform="rotate(0,432,348)"/><rect x="425" y="355" width="14" height="14" transform="rotate(0,432,362)"/><rect x="425" y="383" width="14" height="14" transform="rotate(0,432,390)"/><rect x="425" y="397" width="14" height="14" transform="rotate(0,432,404)"/><rect x="425" y="411" width="14" height="14" transform="rotate(0,432,418)"/><rect x="425" y="425" width="14" height="14" transform="rotate(0,432,432)"/><path d="M 425 453v 14h 7a 7 7, 0, 0, 0, 0 -14" transform="rotate(0,432,460)"/><path d="M 439 173v 14h 7a 7 7, 0, 0, 0, 0 -14" transform="rotate(0,446,180)"/><rect x="439" y="201" width="14" height="14" transform="rotate(0,446,208)"/><rect x="439" y="215" width="14" height="14" transform="rotate(0,446,222)"/><rect x="439" y="229" width="14" height="14" transform="rotate(0,446,236)"/><rect x="439" y="243" width="14" height="14" transform="rotate(0,446,250)"/><rect x="439" y="257" width="14" height="14" transform="rotate(0,446,264)"/><path d="M 439 271v 14h 14v -7a 7 7, 0, 0, 0, -7 -7" transform="rotate(180,446,278)"/><rect x="439" y="355" width="14" height="14" transform="rotate(0,446,362)"/><rect x="439" y="383" width="14" height="14" transform="rotate(0,446,390)"/><rect x="439" y="397" width="14" height="14" transform="rotate(0,446,404)"/><rect x="439" y="411" width="14" height="14" transform="rotate(0,446,418)"/><rect x="439" y="425" width="14" height="14" transform="rotate(0,446,432)"/><path d="M 439 439v 14h 7a 7 7, 0, 0, 0, 0 -14" transform="rotate(90,446,446)"/><circle cx="460" cy="138" r="7" transform="rotate(0,460,138)"/><path d="M 453 187v 14h 7a 7 7, 0, 0, 0, 0 -14" transform="rotate(-90,460,194)"/><rect x="453" y="201" width="14" height="14" transform="rotate(0,460,208)"/><rect x="453" y="257" width="14" height="14" transform="rotate(0,460,264)"/><rect x="453" y="271" width="14" height="14" transform="rotate(0,460,278)"/><path d="M 453 285v 14h 14v -7a 7 7, 0, 0, 0, -7 -7" transform="rotate(180,460,292)"/><path d="M 453 313v 14h 14v -7a 7 7, 0, 0, 0, -7 -7" transform="rotate(-90,460,320)"/><rect x="453" y="327" width="14" height="14" transform="rotate(0,460,334)"/><rect x="453" y="341" width="14" height="14" transform="rotate(0,460,348)"/><rect x="453" y="355" width="14" height="14" transform="rotate(0,460,362)"/><rect x="453" y="383" width="14" height="14" transform="rotate(0,460,390)"/><circle cx="474" cy="166" r="7" transform="rotate(0,474,166)"/><path d="M 467 201v 14h 7a 7 7, 0, 0, 0, 0 -14" transform="rotate(0,474,208)"/><path d="M 467 257v 14h 7a 7 7, 0, 0, 0, 0 -14" transform="rotate(0,474,264)"/><path d="M 467 285v 14h 14v -7a 7 7, 0, 0, 0, -7 -7" transform="rotate(0,474,292)"/><rect x="467" y="299" width="14" height="14" transform="rotate(0,474,306)"/><rect x="467" y="313" width="14" height="14" transform="rotate(0,474,320)"/><rect x="467" y="327" width="14" height="14" transform="rotate(0,474,334)"/><rect x="467" y="341" width="14" height="14" transform="rotate(0,474,348)"/><path d="M 467 355v 14h 14v -7a 7 7, 0, 0, 0, -7 -7" transform="rotate(90,474,362)"/><path d="M 467 383v 14h 7a 7 7, 0, 0, 0, 0 -14" transform="rotate(0,474,390)"/><circle cx="474" cy="474" r="7" transform="rotate(0,474,474)"/></clipPath><clipPath id="clip-path-corners-square-color-0-0"><path clip-rule="evenodd" d="M 19 54v 28a 35 35, 0, 0, 0, 35 35h 28a 35 35, 0, 0, 0, 35 -35v -28a 35 35, 0, 0, 0, -35 -35h -28a 35 35, 0, 0, 0, -35 35M 54 33h 28a 21 21, 0, 0, 1, 21 21v 28a 21 21, 0, 0, 1, -21 21h -28a 21 21, 0, 0, 1, -21 -21v -28a 21 21, 0, 0, 1, 21 -21" transform="rotate(0,68,68)"/></clipPath><clipPath id="clip-path-corners-dot-color-0-0"><circle cx="68" cy="68" r="21" transform="rotate(0,68,68)"/></clipPath><clipPath id="clip-path-corners-square-color-1-0"><path clip-rule="evenodd" d="M 383 54v 28a 35 35, 0, 0, 0, 35 35h 28a 35 35, 0, 0, 0, 35 -35v -28a 35 35, 0, 0, 0, -35 -35h -28a 35 35, 0, 0, 0, -35 35M 418 33h 28a 21 21, 0, 0, 1, 21 21v 28a 21 21, 0, 0, 1, -21 21h -28a 21 21, 0, 0, 1, -21 -21v -28a 21 21, 0, 0, 1, 21 -21" transform="rotate(90,432,68)"/></clipPath><clipPath id="clip-path-corners-dot-color-1-0"><circle cx="432" cy="68" r="21" transform="rotate(90,432,68)"/></clipPath><clipPath id="clip-path-corners-square-color-0-1"><path clip-rule="evenodd" d="M 19 418v 28a 35 35, 0, 0, 0, 35 35h 28a 35 35, 0, 0, 0, 35 -35v -28a 35 35, 0, 0, 0, -35 -35h -28a 35 35, 0, 0, 0, -35 35M 54 397h 28a 21 21, 0, 0, 1, 21 21v 28a 21 21, 0, 0, 1, -21 21h -28a 21 21, 0, 0, 1, -21 -21v -28a 21 21, 0, 0, 1, 21 -21" transform="rotate(-90,68,432)"/></clipPath><clipPath id="clip-path-corners-dot-color-0-1"><circle cx="68" cy="432" r="21" transform="rotate(-90,68,432)"/></clipPath></defs><rect x="0" y="0" height="500" width="500" clip-path="url('#clip-path-background-color')" fill="#fff"/><rect x="0" y="0" height="500" width="500" clip-path="url('#clip-path-dot-color')" fill="#000000"/><rect x="19" y="19" height="98" width="98" clip-path="url('#clip-path-corners-square-color-0-0')" fill="#000000"/><rect x="47" y="47" height="42" width="42" clip-path="url('#clip-path-corners-dot-color-0-0')" fill="#000000"/><rect x="383" y="19" height="98" width="98" clip-path="url('#clip-path-corners-square-color-1-0')" fill="#000000"/><rect x="411" y="47" height="42" width="42" clip-path="url('#clip-path-corners-dot-color-1-0')" fill="#000000"/><rect x="19" y="383" height="98" width="98" clip-path="url('#clip-path-corners-square-color-0-1')" fill="#000000"/><rect x="47" y="411" height="42" width="42" clip-path="url('#clip-path-corners-dot-color-0-1')" fill="#000000"/></svg>